<svg xmlns="http://www.w3.org/2000/svg" xmlns:xlink="http://www.w3.org/1999/xlink" width="500" zoomAndPan="magnify" viewBox="0 0 375 374.999991" height="500" preserveAspectRatio="xMidYMid meet" version="1.0"><defs><g/></defs><path fill="#ffffff" d="M 72.28125 30.710938 C 70.707031 28.402344 69.285156 25.980469 68.03125 23.460938 C 66.136719 19.632812 64.28125 14.816406 63.625 10.550781 C 63.007812 6.546875 65.621094 2.742188 69.589844 1.902344 C 75.230469 0.707031 80.96875 0.0742188 86.734375 0.0546875 C 103.589844 0 119.539062 5.191406 133.75 14.085938 C 140.878906 18.550781 148.035156 24.238281 153.941406 30.453125 C 158.269531 29.6875 162.804688 29.3125 167.113281 29.050781 C 174.847656 28.578125 182.832031 28.464844 190.59375 28.675781 C 198.351562 28.464844 206.335938 28.578125 214.074219 29.050781 C 218.378906 29.3125 222.914062 29.6875 227.242188 30.453125 C 233.152344 24.238281 240.304688 18.550781 247.4375 14.085938 C 261.648438 5.191406 277.597656 0 294.453125 0.0546875 C 300.21875 0.0742188 305.957031 0.707031 311.59375 1.902344 C 315.566406 2.742188 318.183594 6.550781 317.5625 10.554688 C 316.898438 14.828125 315.050781 19.625 313.152344 23.460938 C 311.902344 25.980469 310.480469 28.402344 308.90625 30.710938 C 310.722656 31.09375 312.410156 32.132812 313.570312 33.765625 C 314.347656 34.859375 314.828125 36.140625 314.949219 37.476562 C 315.425781 41.511719 315.171875 46.179688 314.589844 50.160156 C 313.546875 57.285156 311.164062 64.113281 307.382812 70.203125 C 315.113281 80.386719 321.1875 91.820312 325.460938 103.855469 C 330.554688 118.199219 333.035156 133.25 333.300781 148.449219 C 333.464844 150.519531 333.550781 152.59375 333.550781 154.667969 L 333.550781 154.765625 C 333.550781 175.636719 325.421875 195.492188 310.804688 210.363281 C 319.070312 225.566406 325.535156 242.503906 327.039062 259.757812 C 328.238281 273.507812 326.183594 287.566406 319.316406 299.6875 C 314.679688 307.871094 308.125 314.683594 300.070312 319.554688 C 292.25 324.28125 283.382812 326.945312 274.273438 327.507812 C 272.121094 327.640625 269.960938 327.652344 267.808594 327.550781 C 266.269531 329.035156 264.699219 330.488281 263.101562 331.910156 C 265.597656 341.046875 263.875 350.453125 258.363281 358.390625 C 255.382812 362.683594 251.441406 366.304688 246.953125 368.984375 C 242.441406 371.675781 237.355469 373.433594 232.117188 373.964844 C 221.90625 374.996094 212.640625 371.363281 205.695312 364.179688 C 200.828125 365.097656 195.75 365.980469 190.886719 365.96875 C 185.902344 365.953125 180.574219 365.027344 175.527344 364.140625 C 168.578125 371.347656 159.300781 375 149.070312 373.964844 C 143.832031 373.433594 138.746094 371.679688 134.230469 368.984375 C 129.746094 366.304688 125.804688 362.683594 122.824219 358.390625 C 117.3125 350.449219 115.589844 341.046875 118.082031 331.910156 C 116.488281 330.488281 114.917969 329.035156 113.378906 327.550781 C 111.222656 327.652344 109.066406 327.640625 106.914062 327.507812 C 97.800781 326.945312 88.933594 324.28125 81.117188 319.554688 C 73.058594 314.683594 66.503906 307.871094 61.867188 299.6875 C 55.003906 287.566406 52.945312 273.507812 54.144531 259.757812 C 55.648438 242.503906 62.117188 225.566406 70.378906 210.363281 C 55.765625 195.492188 47.636719 175.636719 47.636719 154.765625 L 47.636719 154.667969 C 47.636719 152.59375 47.722656 150.519531 47.886719 148.449219 C 48.148438 133.25 50.632812 118.199219 55.722656 103.855469 C 59.996094 91.820312 66.074219 80.382812 73.800781 70.203125 C 70.023438 64.113281 67.640625 57.285156 66.597656 50.160156 C 66.015625 46.183594 65.761719 41.515625 66.234375 37.480469 C 66.359375 36.144531 66.835938 34.859375 67.613281 33.765625 C 68.773438 32.132812 70.460938 31.09375 72.28125 30.710938 Z M 72.28125 30.710938 " fill-opacity="1" fill-rule="evenodd"/><path fill="#ffffff" d="M 170.175781 181.035156 C 170.863281 179.785156 171.75 178.632812 172.839844 177.710938 C 173.78125 176.914062 174.832031 176.28125 175.988281 175.859375 L 176.398438 175.710938 L 176.554688 175.300781 C 177.6875 172.390625 178.554688 169.378906 179.160156 166.3125 C 179.84375 162.84375 180.183594 159.316406 180.183594 155.777344 C 180.183594 141.398438 174.519531 127.734375 164.351562 117.574219 C 154.183594 107.410156 140.519531 101.75 126.140625 101.75 C 111.757812 101.75 98.089844 107.410156 87.925781 117.574219 C 77.757812 127.738281 72.097656 141.402344 72.097656 155.777344 C 72.097656 170.152344 77.757812 183.8125 87.925781 193.976562 C 98.09375 204.140625 111.761719 209.804688 126.140625 209.804688 C 134.257812 209.804688 142.238281 208.011719 149.554688 204.488281 C 156.625 201.085938 162.878906 196.164062 167.867188 190.117188 L 168.078125 189.855469 L 168.085938 189.519531 L 168.085938 189.523438 C 168.144531 186.621094 168.761719 183.59375 170.175781 181.035156 Z M 170.175781 181.035156 " fill-opacity="1" fill-rule="nonzero"/><path fill="#ffffff" d="M 254.179688 227.914062 C 244.984375 227.914062 235.894531 226.210938 227.34375 222.832031 C 220.886719 220.289062 214.816406 216.828125 209.335938 212.566406 C 207.089844 210.820312 203.941406 210.957031 201.855469 212.890625 C 198.675781 215.832031 195.074219 218.316406 191.285156 220.398438 C 191.070312 220.515625 190.839844 220.578125 190.59375 220.578125 C 190.351562 220.578125 190.117188 220.515625 189.902344 220.398438 C 186.117188 218.316406 182.515625 215.832031 179.335938 212.890625 C 177.246094 210.957031 174.101562 210.820312 171.855469 212.566406 C 166.371094 216.828125 160.300781 220.289062 153.847656 222.832031 C 145.292969 226.210938 136.207031 227.914062 127.007812 227.914062 C 119.902344 227.914062 112.832031 226.894531 106.015625 224.863281 L 104.640625 224.453125 L 104.777344 225.878906 C 105.574219 234.171875 108.542969 242.503906 112.796875 249.640625 C 118.003906 258.386719 125.21875 265.546875 133.6875 271.136719 L 133.765625 271.191406 L 133.804688 271.214844 C 143.347656 276.453125 153.789062 281.472656 163.972656 285.449219 C 164.058594 285.480469 164.136719 285.519531 164.214844 285.5625 C 164.898438 285.96875 165.128906 286.851562 164.726562 287.535156 C 155.074219 303.835938 140.105469 316.628906 121.199219 320.367188 L 119.367188 320.730469 L 120.726562 322.011719 C 123.058594 324.21875 125.460938 326.351562 127.957031 328.433594 C 127.980469 328.453125 128.007812 328.472656 128.0625 328.519531 C 133.703125 333.214844 139.679688 337.515625 145.9375 341.347656 C 159.4375 349.613281 174.128906 355.589844 189.628906 358.832031 L 189.628906 359.242188 L 190.59375 359.046875 L 191.558594 359.242188 L 191.558594 358.832031 C 207.0625 355.589844 221.753906 349.613281 235.25 341.347656 C 241.511719 337.515625 247.484375 333.214844 253.128906 328.519531 C 253.183594 328.472656 253.207031 328.453125 253.234375 328.433594 C 255.726562 326.351562 258.132812 324.21875 260.464844 322.011719 L 261.824219 320.730469 L 259.992188 320.367188 C 241.085938 316.628906 226.117188 303.835938 216.464844 287.535156 C 216.0625 286.851562 216.289062 285.96875 216.972656 285.5625 C 217.054688 285.519531 217.132812 285.480469 217.21875 285.449219 C 227.398438 281.472656 237.84375 276.453125 247.382812 271.214844 L 247.421875 271.191406 L 247.5 271.136719 C 255.972656 265.546875 263.183594 258.386719 268.394531 249.640625 C 272.644531 242.503906 275.617188 234.171875 276.414062 225.878906 L 276.546875 224.453125 L 275.175781 224.863281 C 268.359375 226.894531 261.289062 227.914062 254.179688 227.914062 Z M 254.179688 227.914062 " fill-opacity="1" fill-rule="nonzero"/><path fill="#ffffff" d="M 204.632812 175.300781 L 204.792969 175.710938 L 205.203125 175.859375 C 206.359375 176.28125 207.40625 176.914062 208.347656 177.710938 C 209.441406 178.632812 210.328125 179.785156 211.011719 181.035156 C 212.425781 183.59375 213.046875 186.621094 213.105469 189.523438 L 213.105469 189.519531 L 213.109375 189.855469 L 213.320312 190.117188 C 218.308594 196.164062 224.566406 201.085938 231.632812 204.488281 C 238.953125 208.011719 246.929688 209.804688 255.050781 209.804688 C 269.429688 209.804688 283.097656 204.140625 293.261719 193.976562 C 303.433594 183.8125 309.09375 170.152344 309.09375 155.777344 C 309.09375 141.402344 303.433594 127.738281 293.261719 117.574219 C 283.101562 107.410156 269.433594 101.75 255.050781 101.75 C 240.671875 101.75 227.003906 107.410156 216.835938 117.574219 C 206.667969 127.734375 201.007812 141.398438 201.007812 155.777344 C 201.007812 159.316406 201.347656 162.84375 202.03125 166.3125 C 202.636719 169.378906 203.503906 172.390625 204.632812 175.300781 Z M 204.632812 175.300781 " fill-opacity="1" fill-rule="nonzero"/><path fill="#ffffff" d="M 303.871094 105.070312 C 290.648438 91.851562 272.878906 84.492188 254.171875 84.492188 C 241.328125 84.492188 228.808594 87.941406 217.820312 94.597656 C 206.832031 101.246094 197.824219 110.816406 191.863281 122.195312 C 191.617188 122.667969 191.128906 122.964844 190.59375 122.96875 C 190.0625 122.964844 189.574219 122.667969 189.328125 122.195312 C 183.363281 110.816406 174.359375 101.246094 163.371094 94.597656 C 152.378906 87.941406 139.863281 84.492188 127.015625 84.492188 C 108.3125 84.492188 90.542969 91.851562 77.316406 105.070312 C 64.09375 118.289062 56.734375 136.058594 56.734375 154.753906 C 56.734375 173.453125 64.09375 191.21875 77.316406 204.4375 C 90.542969 217.65625 108.316406 225.015625 127.015625 225.015625 C 135.851562 225.015625 144.585938 223.382812 152.808594 220.140625 C 160.347656 217.167969 167.320312 212.894531 173.40625 207.546875 L 174.046875 206.980469 L 173.558594 206.273438 L 173.558594 206.285156 C 171.347656 203.082031 169.65625 199.511719 168.765625 195.714844 L 168.359375 193.992188 L 167.132812 195.265625 C 162.441406 200.136719 156.902344 204.144531 150.808594 207.078125 C 143.097656 210.789062 134.695312 212.691406 126.140625 212.691406 C 110.988281 212.691406 96.59375 206.730469 85.878906 196.019531 C 75.167969 185.3125 69.203125 170.921875 69.203125 155.773438 C 69.203125 140.628906 75.167969 126.238281 85.878906 115.527344 C 96.59375 104.816406 110.988281 98.855469 126.140625 98.855469 C 141.292969 98.855469 155.683594 104.8125 166.398438 115.527344 C 177.109375 126.238281 183.074219 140.628906 183.074219 155.773438 C 183.074219 159.492188 182.714844 163.207031 181.992188 166.859375 C 181.804688 167.804688 181.59375 168.75 181.359375 169.683594 C 180.65625 172.480469 182.097656 175.34375 184.765625 176.449219 C 186.480469 177.152344 188.121094 178.125 189.628906 179.21875 L 189.628906 180.65625 L 190.59375 179.929688 L 191.5625 180.65625 L 191.5625 179.21875 C 193.066406 178.125 194.710938 177.152344 196.421875 176.449219 C 199.09375 175.34375 200.53125 172.480469 199.828125 169.683594 C 199.59375 168.75 199.382812 167.804688 199.195312 166.859375 C 198.472656 163.207031 198.113281 159.492188 198.113281 155.773438 C 198.113281 140.628906 204.078125 126.238281 214.792969 115.527344 C 225.503906 104.8125 239.898438 98.855469 255.050781 98.855469 C 270.203125 98.855469 284.597656 104.816406 295.308594 115.527344 C 306.023438 126.238281 311.988281 140.628906 311.988281 155.773438 C 311.988281 170.921875 306.023438 185.3125 295.308594 196.019531 C 284.597656 206.730469 270.203125 212.691406 255.050781 212.691406 C 246.496094 212.691406 238.089844 210.789062 230.378906 207.078125 C 224.289062 204.144531 218.75 200.136719 214.058594 195.265625 L 212.828125 193.992188 L 212.421875 195.714844 C 211.53125 199.511719 209.84375 203.082031 207.632812 206.285156 L 207.628906 206.273438 L 207.140625 206.980469 L 207.785156 207.546875 C 213.871094 212.894531 220.84375 217.167969 228.382812 220.140625 C 236.601562 223.382812 245.339844 225.015625 254.171875 225.015625 C 272.875 225.015625 290.648438 217.65625 303.871094 204.4375 C 317.09375 191.21875 324.457031 173.453125 324.457031 154.753906 C 324.457031 136.058594 317.09375 118.289062 303.871094 105.070312 Z M 303.871094 105.070312 " fill-opacity="1" fill-rule="nonzero"/><path fill="#fc9c36" d="M 208.484375 182.421875 C 207.96875 181.484375 207.304688 180.605469 206.484375 179.910156 C 201.875 176.015625 195.277344 179.433594 191.574219 182.894531 C 191.304688 183.140625 190.960938 183.277344 190.59375 183.277344 C 190.226562 183.277344 189.882812 183.140625 189.613281 182.894531 C 185.914062 179.433594 179.3125 176.015625 174.703125 179.910156 C 173.882812 180.605469 173.222656 181.484375 172.707031 182.421875 C 171.421875 184.753906 170.929688 187.550781 170.957031 190.1875 L 170.957031 190.21875 L 170.960938 190.25 C 170.964844 190.308594 170.96875 190.367188 170.964844 190.421875 L 170.964844 190.484375 C 170.988281 191.417969 171.074219 192.351562 171.21875 193.273438 C 172.023438 198.496094 174.585938 203.304688 177.972656 207.3125 C 181.234375 211.171875 185.292969 214.332031 189.628906 216.90625 L 189.628906 218.050781 L 190.59375 217.488281 L 191.5625 218.050781 L 191.558594 218.046875 L 191.558594 216.90625 C 195.898438 214.332031 199.957031 211.171875 203.21875 207.3125 C 206.601562 203.304688 209.164062 198.496094 209.972656 193.273438 C 210.113281 192.351562 210.203125 191.417969 210.226562 190.484375 L 210.226562 190.421875 C 210.222656 190.367188 210.226562 190.308594 210.226562 190.25 L 210.230469 190.21875 L 210.230469 190.1875 C 210.261719 187.550781 209.769531 184.753906 208.484375 182.421875 Z M 208.484375 182.421875 " fill-opacity="1" fill-rule="evenodd"/><path fill="#263e7e" d="M 144.441406 343.804688 C 138.964844 340.453125 133.707031 336.75 128.691406 332.742188 L 127.601562 331.875 L 127.175781 333.199219 L 127.171875 333.203125 C 124.917969 340.160156 126.148438 347.269531 130.285156 353.226562 C 132.527344 356.457031 135.507812 359.175781 138.882812 361.191406 C 142.253906 363.207031 146.054688 364.535156 149.96875 364.929688 C 157.46875 365.691406 164.285156 362.917969 169.386719 357.410156 L 170.363281 356.355469 L 169.019531 355.851562 C 160.460938 352.640625 152.238281 348.578125 144.441406 343.804688 Z M 144.441406 343.804688 " fill-opacity="1" fill-rule="nonzero"/><path fill="#263e7e" d="M 160.753906 288.480469 L 161.375 287.511719 L 160.3125 287.074219 C 150.804688 283.144531 141.34375 278.628906 132.335938 273.667969 L 132.285156 273.640625 C 132.234375 273.617188 132.183594 273.585938 132.132812 273.558594 L 132.082031 273.53125 C 121.050781 267.4375 108.621094 259.570312 100.082031 250.320312 C 99.542969 249.730469 99.585938 248.820312 100.167969 248.28125 C 100.753906 247.746094 101.664062 247.785156 102.203125 248.367188 C 105.242188 251.660156 108.675781 254.636719 112.21875 257.371094 L 117.53125 261.472656 L 113.589844 256.042969 C 112.429688 254.445312 111.34375 252.796875 110.332031 251.101562 C 105.570312 243.101562 102.25 233.410156 101.769531 224.066406 L 101.738281 223.433594 L 101.148438 223.214844 C 93.953125 220.496094 87.226562 216.648438 81.230469 211.832031 L 80.34375 211.117188 L 79.789062 212.105469 L 79.785156 212.105469 C 71.515625 226.738281 64.71875 243.410156 63.195312 260.289062 C 62.117188 272.277344 63.769531 284.617188 69.765625 295.207031 C 73.636719 302.03125 79.09375 307.710938 85.8125 311.773438 C 92.371094 315.734375 99.816406 317.96875 107.460938 318.441406 C 117.378906 319.050781 127.199219 316.695312 135.949219 312.039062 C 146.21875 306.566406 154.515625 298.234375 160.753906 288.480469 Z M 160.753906 288.480469 " fill-opacity="1" fill-rule="nonzero"/><path fill="#263e7e" d="M 100.402344 86.59375 L 102.570312 85.75 L 100.441406 84.816406 C 94.304688 82.128906 88.707031 78.441406 84.125 73.539062 L 83.363281 72.722656 L 82.667969 73.59375 L 82.664062 73.589844 C 74.714844 83.542969 68.539062 94.882812 64.28125 106.878906 C 62.75 111.199219 61.460938 115.605469 60.417969 120.074219 L 60.226562 120.898438 L 61.816406 121.492188 L 62.210938 120.742188 C 65.644531 114.21875 70.054688 108.242188 75.265625 103.03125 C 82.417969 95.886719 90.980469 90.273438 100.402344 86.59375 Z M 100.402344 86.59375 " fill-opacity="1" fill-rule="nonzero"/><path fill="#263e7e" d="M 301.402344 212.105469 L 301.398438 212.105469 L 300.839844 211.117188 L 299.957031 211.832031 C 293.960938 216.648438 287.230469 220.496094 280.035156 223.214844 L 279.449219 223.433594 L 279.417969 224.066406 C 278.9375 233.410156 275.617188 243.101562 270.855469 251.101562 C 269.84375 252.796875 268.753906 254.445312 267.597656 256.042969 L 263.652344 261.472656 L 268.964844 257.371094 C 272.511719 254.636719 275.945312 251.660156 278.984375 248.367188 C 279.523438 247.785156 280.433594 247.746094 281.019531 248.28125 C 281.601562 248.820312 281.644531 249.730469 281.105469 250.320312 C 272.566406 259.570312 260.136719 267.4375 249.105469 273.53125 L 249.050781 273.558594 C 249.003906 273.585938 248.953125 273.617188 248.902344 273.640625 L 248.851562 273.667969 C 239.84375 278.628906 230.382812 283.144531 220.875 287.074219 L 219.8125 287.511719 L 220.429688 288.480469 C 226.667969 298.234375 234.96875 306.566406 245.238281 312.039062 C 253.988281 316.695312 263.808594 319.050781 273.726562 318.441406 C 281.371094 317.96875 288.816406 315.734375 295.371094 311.773438 C 302.09375 307.710938 307.550781 302.03125 311.421875 295.207031 C 317.417969 284.617188 319.070312 272.277344 317.988281 260.289062 C 316.46875 243.410156 309.667969 226.738281 301.402344 212.105469 Z M 301.402344 212.105469 " fill-opacity="1" fill-rule="nonzero"/><path fill="#263e7e" d="M 320.769531 120.074219 C 319.726562 115.605469 318.4375 111.199219 316.90625 106.878906 C 312.644531 94.882812 306.472656 83.542969 298.523438 73.589844 L 298.519531 73.59375 L 297.824219 72.722656 L 297.058594 73.539062 C 292.480469 78.441406 286.878906 82.128906 280.746094 84.816406 L 278.617188 85.75 L 280.785156 86.59375 C 290.207031 90.273438 298.769531 95.886719 305.921875 103.03125 C 311.132812 108.242188 315.542969 114.21875 318.976562 120.742188 L 319.371094 121.492188 L 320.960938 120.898438 Z M 320.769531 120.074219 " fill-opacity="1" fill-rule="nonzero"/><path fill="#263e7e" d="M 216.339844 92.140625 C 227.785156 85.214844 240.808594 81.597656 254.183594 81.597656 C 260.777344 81.597656 267.34375 82.476562 273.699219 84.234375 L 273.984375 84.3125 L 274.261719 84.21875 C 285.554688 80.464844 295.21875 73.808594 300.949219 63.1875 C 304.363281 56.863281 306.105469 49.539062 306.132812 42.363281 L 306.136719 40.738281 L 304.710938 41.515625 C 301.257812 43.382812 297.480469 44.742188 293.699219 45.769531 C 289.113281 47.011719 284.355469 47.804688 279.632812 48.296875 L 279.449219 48.316406 L 279.285156 48.402344 C 275.570312 50.351562 271.71875 52.019531 267.777344 53.4375 C 267.03125 53.707031 266.207031 53.320312 265.941406 52.570312 C 265.671875 51.824219 266.058594 51.003906 266.808594 50.734375 C 270.71875 49.328125 274.542969 47.664062 278.21875 45.71875 L 278.246094 45.707031 L 278.273438 45.683594 C 278.328125 45.652344 278.386719 45.621094 278.445312 45.59375 L 278.480469 45.578125 L 278.511719 45.5625 C 291.808594 38.457031 304.167969 26.480469 308.09375 11.503906 L 308.355469 10.496094 L 307.328125 10.3125 C 287.679688 6.789062 268.84375 11.300781 252.09375 21.828125 C 245.136719 26.203125 237.195312 32.5625 231.734375 39 L 231.734375 39.003906 C 231.734375 39.003906 231.734375 39 231.734375 39 L 231.726562 38.992188 L 231.097656 39.757812 C 230.734375 40.199219 230.148438 40.386719 229.597656 40.234375 C 224.472656 38.816406 218.265625 38.34375 212.953125 38.042969 C 205.574219 37.617188 198.035156 37.539062 190.640625 37.734375 L 190.546875 37.734375 C 183.152344 37.539062 175.613281 37.617188 168.234375 38.042969 C 162.921875 38.34375 156.714844 38.816406 151.589844 40.234375 C 151.039062 40.386719 150.449219 40.199219 150.089844 39.757812 L 149.460938 38.992188 L 149.449219 39 C 149.453125 39 149.453125 39.003906 149.453125 39.003906 L 149.449219 39 C 143.992188 32.5625 136.046875 26.203125 129.089844 21.828125 C 112.34375 11.300781 93.503906 6.789062 73.855469 10.3125 L 72.832031 10.496094 L 73.09375 11.503906 C 77.015625 26.480469 89.378906 38.457031 102.671875 45.5625 L 102.703125 45.578125 L 102.738281 45.59375 C 102.796875 45.621094 102.859375 45.652344 102.914062 45.683594 L 102.941406 45.707031 L 102.96875 45.71875 C 106.644531 47.664062 110.46875 49.328125 114.378906 50.734375 C 115.125 51.003906 115.515625 51.824219 115.246094 52.570312 C 114.980469 53.320312 114.15625 53.707031 113.410156 53.4375 C 109.46875 52.019531 105.613281 50.351562 101.902344 48.402344 L 101.738281 48.316406 L 101.554688 48.296875 C 96.828125 47.804688 92.074219 47.011719 87.488281 45.769531 C 83.703125 44.742188 79.925781 43.382812 76.476562 41.515625 L 75.046875 40.738281 L 75.054688 42.363281 C 75.078125 49.539062 76.824219 56.863281 80.238281 63.1875 C 85.96875 73.808594 95.628906 80.464844 106.925781 84.21875 L 107.203125 84.3125 L 107.484375 84.234375 C 113.84375 82.476562 120.40625 81.597656 127.003906 81.597656 C 140.378906 81.597656 153.402344 85.214844 164.847656 92.140625 C 174.976562 98.273438 183.5 106.800781 189.632812 116.925781 L 189.632812 120.109375 L 190.59375 118.511719 L 191.554688 120.109375 L 191.554688 116.925781 C 197.6875 106.800781 206.207031 98.273438 216.339844 92.140625 Z M 216.339844 92.140625 " fill-opacity="1" fill-rule="nonzero"/><path fill="#263e7e" d="M 254.011719 333.199219 L 253.582031 331.875 L 252.496094 332.742188 C 247.480469 336.75 242.21875 340.453125 236.746094 343.804688 C 228.949219 348.578125 220.726562 352.640625 212.167969 355.851562 L 210.824219 356.355469 L 211.800781 357.410156 C 216.898438 362.917969 223.71875 365.691406 231.21875 364.929688 C 235.128906 364.535156 238.933594 363.207031 242.300781 361.191406 C 245.675781 359.175781 248.65625 356.457031 250.902344 353.226562 C 255.039062 347.269531 256.265625 340.160156 254.015625 333.203125 Z M 254.011719 333.199219 " fill-opacity="1" fill-rule="nonzero"/><path fill="#1f3266" d="M 144.441406 343.808594 C 138.964844 340.457031 133.707031 336.753906 128.691406 332.75 L 127.601562 331.878906 L 127.175781 333.207031 C 126.617188 334.925781 126.273438 336.660156 126.136719 338.382812 L 126.128906 338.382812 C 134.148438 345.367188 146.9375 354.675781 164.242188 361.6875 C 166.097656 360.535156 167.824219 359.105469 169.386719 357.417969 L 170.363281 356.363281 L 169.019531 355.859375 C 160.460938 352.644531 152.238281 348.585938 144.441406 343.808594 Z M 144.441406 343.808594 " fill-opacity="1" fill-rule="nonzero"/><path fill="#1f3266" d="M 132.328125 273.671875 L 132.277344 273.648438 C 132.230469 273.621094 132.175781 273.59375 132.125 273.566406 L 132.074219 273.535156 C 121.042969 267.445312 108.617188 259.578125 100.074219 250.324219 C 99.535156 249.738281 99.578125 248.828125 100.160156 248.289062 C 100.746094 247.75 101.660156 247.792969 102.195312 248.375 C 105.234375 251.667969 108.667969 254.640625 112.210938 257.378906 L 117.527344 261.476562 L 113.585938 256.046875 C 112.425781 254.449219 111.335938 252.800781 110.324219 251.105469 C 105.5625 243.105469 102.242188 233.417969 101.761719 224.070312 L 101.730469 223.441406 L 101.144531 223.21875 C 93.949219 220.5 87.21875 216.652344 81.222656 211.835938 L 80.339844 211.125 L 79.78125 212.113281 C 76.09375 218.636719 72.703125 225.566406 69.9375 232.738281 C 86.109375 252.472656 112.179688 274.265625 152.148438 283.558594 C 145.410156 280.523438 138.753906 277.210938 132.328125 273.671875 Z M 132.328125 273.671875 " fill-opacity="1" fill-rule="nonzero"/><path fill="#1f3266" d="M 85.816406 45.292969 C 85.816406 45.292969 85.816406 45.296875 85.816406 45.296875 C 85.816406 45.296875 85.820312 45.296875 85.820312 45.296875 Z M 85.816406 45.292969 " fill-opacity="1" fill-rule="nonzero"/><path fill="#1f3266" d="M 80.246094 63.191406 C 85.976562 73.816406 95.636719 80.472656 106.933594 84.226562 L 107.210938 84.320312 L 107.496094 84.238281 C 110.574219 83.386719 113.710938 82.742188 116.871094 82.304688 L 117.03125 81.308594 C 91.320312 76.691406 86.640625 54.554688 85.816406 45.296875 C 82.601562 44.335938 79.425781 43.113281 76.484375 41.519531 L 75.058594 40.746094 L 75.0625 42.367188 C 75.09375 49.546875 76.835938 56.871094 80.246094 63.191406 Z M 80.246094 63.191406 " fill-opacity="1" fill-rule="nonzero"/><path fill="#1f3266" d="M 295.367188 45.296875 C 295.367188 45.296875 295.367188 45.296875 295.371094 45.296875 C 295.371094 45.296875 295.371094 45.292969 295.371094 45.292969 Z M 295.367188 45.296875 " fill-opacity="1" fill-rule="nonzero"/><path fill="#1f3266" d="M 273.691406 84.238281 L 273.972656 84.320312 L 274.253906 84.226562 C 285.550781 80.472656 295.207031 73.816406 300.9375 63.191406 C 304.351562 56.871094 306.09375 49.546875 306.125 42.367188 L 306.128906 40.746094 L 304.703125 41.519531 C 301.761719 43.113281 298.585938 44.335938 295.371094 45.296875 C 294.542969 54.554688 289.867188 76.691406 264.152344 81.308594 L 264.316406 82.304688 C 267.476562 82.742188 270.609375 83.386719 273.691406 84.238281 Z M 273.691406 84.238281 " fill-opacity="1" fill-rule="nonzero"/><path fill="#1f3266" d="M 254.011719 333.207031 L 253.585938 331.878906 L 252.496094 332.75 C 247.480469 336.753906 242.21875 340.457031 236.746094 343.808594 C 228.949219 348.585938 220.726562 352.644531 212.167969 355.859375 L 210.824219 356.363281 L 211.800781 357.417969 C 213.363281 359.105469 215.089844 360.535156 216.945312 361.6875 C 234.25 354.675781 247.035156 345.367188 255.058594 338.382812 L 255.050781 338.382812 C 254.910156 336.660156 254.566406 334.925781 254.011719 333.207031 Z M 254.011719 333.207031 " fill-opacity="1" fill-rule="nonzero"/><path fill="#1f3266" d="M 242.046875 82.617188 L 242.046875 82.613281 L 243.25 81.441406 C 211.921875 83.8125 197.96875 92.085938 192.949219 96.074219 C 191.550781 97.179688 189.632812 97.179688 188.238281 96.074219 C 183.21875 92.085938 169.265625 83.8125 137.9375 81.441406 L 139.140625 82.613281 L 139.136719 82.617188 C 148.195312 84.128906 156.902344 87.34375 164.851562 92.148438 C 175.050781 98.324219 183.625 106.921875 189.765625 117.140625 L 190.59375 118.511719 L 191.417969 117.140625 C 197.5625 106.921875 206.136719 98.324219 216.335938 92.148438 C 224.285156 87.34375 232.988281 84.128906 242.046875 82.617188 Z M 242.046875 82.617188 " fill-opacity="1" fill-rule="nonzero"/><path fill="#1f3266" d="M 311.25 232.738281 C 308.484375 225.566406 305.089844 218.636719 301.402344 212.113281 L 300.847656 211.125 L 299.964844 211.835938 C 293.964844 216.652344 287.238281 220.5 280.042969 223.21875 L 279.457031 223.441406 L 279.421875 224.070312 C 278.945312 233.417969 275.621094 243.105469 270.859375 251.105469 C 269.851562 252.800781 268.761719 254.449219 267.601562 256.046875 L 263.660156 261.476562 L 268.972656 257.378906 C 272.515625 254.640625 275.953125 251.667969 278.988281 248.375 C 279.527344 247.792969 280.441406 247.75 281.023438 248.289062 C 281.609375 248.828125 281.648438 249.738281 281.109375 250.324219 C 272.570312 259.578125 260.144531 267.445312 249.109375 273.535156 L 249.058594 273.566406 C 249.007812 273.59375 248.957031 273.621094 248.90625 273.648438 L 248.855469 273.671875 C 242.429688 277.210938 235.777344 280.523438 229.039062 283.558594 C 269.007812 274.265625 295.078125 252.472656 311.25 232.738281 Z M 311.25 232.738281 " fill-opacity="1" fill-rule="nonzero"/><path fill="#3c518b" d="M 64.207031 252.804688 L 64.203125 252.808594 C 63.757812 255.296875 63.414062 257.792969 63.1875 260.292969 C 62.109375 272.28125 63.761719 284.621094 69.757812 295.207031 C 73.628906 302.035156 79.085938 307.714844 85.808594 311.777344 C 92.363281 315.738281 99.808594 317.972656 107.453125 318.441406 C 117.375 319.054688 127.195312 316.699219 135.941406 312.042969 C 141.160156 309.261719 145.871094 305.742188 150.058594 301.675781 L 149.882812 300.5 C 81.097656 335.207031 67.046875 279.628906 64.207031 252.804688 Z M 64.207031 252.804688 " fill-opacity="1" fill-rule="nonzero"/><path fill="#3c518b" d="M 75.140625 44.96875 C 91.332031 50.296875 100.9375 49.878906 100.9375 49.878906 C 106.398438 52.710938 113.585938 54.46875 113.585938 54.46875 L 113.828125 53.523438 L 113.824219 53.527344 C 113.683594 53.519531 113.546875 53.496094 113.410156 53.445312 C 109.46875 52.027344 105.613281 50.355469 101.902344 48.410156 L 101.738281 48.324219 L 101.554688 48.304688 C 96.828125 47.808594 92.078125 47.015625 87.488281 45.773438 C 83.703125 44.75 79.925781 43.386719 76.476562 41.519531 L 75.046875 40.746094 L 75.054688 42.367188 C 75.058594 43.238281 75.085938 44.101562 75.140625 44.96875 Z M 75.140625 44.96875 " fill-opacity="1" fill-rule="nonzero"/><path fill="#3c518b" d="M 279.632812 48.304688 L 279.449219 48.324219 L 279.285156 48.410156 C 275.570312 50.355469 271.71875 52.027344 267.777344 53.445312 C 267.640625 53.496094 267.5 53.519531 267.363281 53.527344 L 267.359375 53.523438 L 267.601562 54.46875 C 267.601562 54.46875 274.789062 52.710938 280.25 49.878906 C 280.25 49.878906 289.855469 50.296875 306.046875 44.96875 C 306.101562 44.101562 306.128906 43.238281 306.132812 42.367188 L 306.136719 40.746094 L 304.710938 41.519531 C 301.257812 43.386719 297.484375 44.75 293.699219 45.773438 C 289.109375 47.015625 284.355469 47.808594 279.632812 48.304688 Z M 279.632812 48.304688 " fill-opacity="1" fill-rule="nonzero"/><path fill="#3c518b" d="M 235.882812 44.46875 C 242.253906 37.414062 266.351562 13.417969 301.65625 10.484375 L 301.34375 9.484375 C 283.859375 7.773438 267.132812 12.371094 252.09375 21.828125 C 245.136719 26.203125 237.191406 32.566406 231.734375 39.003906 L 231.722656 38.996094 L 231.09375 39.761719 C 230.730469 40.203125 230.148438 40.390625 229.59375 40.238281 C 224.464844 38.824219 218.257812 38.351562 212.949219 38.046875 C 205.570312 37.621094 198.03125 37.542969 190.636719 37.738281 L 190.597656 37.738281 L 190.59375 37.742188 L 190.589844 37.738281 L 190.550781 37.738281 C 183.15625 37.542969 175.613281 37.621094 168.238281 38.046875 C 162.925781 38.351562 156.722656 38.824219 151.589844 40.238281 C 151.039062 40.390625 150.453125 40.203125 150.09375 39.761719 L 149.464844 38.996094 L 149.453125 39.003906 C 143.996094 32.566406 136.050781 26.203125 129.089844 21.828125 C 114.050781 12.371094 97.328125 7.773438 79.839844 9.484375 L 79.53125 10.484375 C 114.835938 13.417969 138.933594 37.414062 145.300781 44.46875 C 146.386719 45.671875 147.855469 46.21875 149.460938 46.023438 C 160.699219 44.671875 190.59375 44.734375 190.59375 44.734375 C 190.59375 44.734375 220.488281 44.671875 231.726562 46.023438 C 233.332031 46.21875 234.800781 45.671875 235.882812 44.46875 Z M 235.882812 44.46875 " fill-opacity="1" fill-rule="nonzero"/><path fill="#3c518b" d="M 317.996094 260.292969 C 317.773438 257.792969 317.429688 255.296875 316.984375 252.808594 L 316.980469 252.804688 C 314.140625 279.628906 300.089844 335.207031 231.304688 300.5 L 231.128906 301.675781 C 235.316406 305.742188 240.023438 309.261719 245.246094 312.042969 C 253.992188 316.699219 263.8125 319.054688 273.734375 318.441406 C 281.375 317.972656 288.820312 315.738281 295.378906 311.777344 C 302.101562 307.714844 307.554688 302.035156 311.425781 295.207031 C 317.421875 284.621094 319.078125 272.28125 317.996094 260.292969 Z M 317.996094 260.292969 " fill-opacity="1" fill-rule="nonzero"/><path fill="#e6e6e6" d="M 140.523438 327.484375 C 139.855469 326.945312 139.542969 326.164062 139.652344 325.3125 C 139.757812 324.460938 140.253906 323.78125 141.035156 323.421875 C 162.871094 313.339844 172.824219 300.558594 177.230469 292.316406 C 178.320312 290.28125 178.460938 288.105469 177.640625 285.945312 C 176.824219 283.785156 175.277344 282.246094 173.109375 281.445312 C 131.074219 265.839844 113.878906 234.558594 124.738281 237.730469 C 136.222656 241.074219 166.351562 227.207031 174.964844 226.890625 C 179.75 226.710938 184.042969 230.691406 186.914062 234.261719 C 187.84375 235.417969 189.117188 236.027344 190.601562 236.027344 C 192.082031 236.027344 193.355469 235.417969 194.285156 234.261719 C 197.15625 230.691406 201.449219 226.710938 206.234375 226.890625 C 214.84375 227.210938 244.976562 241.078125 256.460938 237.730469 C 267.320312 234.558594 250.125 265.839844 208.089844 281.445312 C 205.921875 282.246094 204.375 283.785156 203.558594 285.945312 C 202.742188 288.105469 202.878906 290.28125 203.96875 292.316406 C 208.375 300.558594 218.328125 313.339844 240.164062 323.421875 C 240.945312 323.78125 241.441406 324.460938 241.546875 325.3125 C 241.65625 326.164062 241.34375 326.945312 240.675781 327.484375 C 211.023438 351.621094 170.175781 351.621094 140.523438 327.484375 Z M 190.59375 220.578125 C 190.347656 220.578125 190.113281 220.519531 189.898438 220.398438 C 186.113281 218.316406 182.511719 215.832031 179.332031 212.890625 C 177.242188 210.957031 174.097656 210.820312 171.851562 212.566406 C 166.371094 216.828125 160.296875 220.289062 153.84375 222.832031 C 145.289062 226.210938 136.203125 227.914062 127.007812 227.914062 C 119.898438 227.914062 112.828125 226.894531 106.011719 224.863281 L 104.640625 224.453125 L 104.773438 225.875 C 105.570312 234.171875 108.539062 242.503906 112.792969 249.640625 C 118 258.386719 125.214844 265.546875 133.683594 271.136719 L 133.800781 271.214844 C 143.34375 276.453125 153.785156 281.472656 163.96875 285.449219 C 164.054688 285.480469 164.132812 285.519531 164.214844 285.5625 C 164.898438 285.96875 165.125 286.851562 164.722656 287.535156 C 155.070312 303.835938 140.101562 316.628906 121.195312 320.367188 L 119.363281 320.730469 L 120.722656 322.011719 C 123.054688 324.21875 125.457031 326.351562 127.953125 328.433594 C 127.980469 328.453125 128.003906 328.472656 128.058594 328.519531 C 133.699219 333.214844 139.675781 337.515625 145.9375 341.347656 C 183.140625 364.132812 198.046875 364.132812 235.25 341.347656 C 241.511719 337.515625 247.484375 333.214844 253.128906 328.519531 C 253.179688 328.472656 253.203125 328.453125 253.234375 328.433594 C 255.726562 326.351562 258.132812 324.21875 260.464844 322.011719 L 261.824219 320.730469 L 259.988281 320.367188 C 241.085938 316.628906 226.117188 303.832031 216.464844 287.535156 C 216.058594 286.851562 216.289062 285.964844 216.972656 285.5625 C 217.050781 285.519531 217.132812 285.476562 217.21875 285.449219 C 227.402344 281.472656 237.847656 276.453125 247.382812 271.214844 L 247.421875 271.191406 L 247.5 271.136719 C 255.96875 265.546875 263.183594 258.386719 268.394531 249.640625 C 272.640625 242.503906 275.617188 234.171875 276.414062 225.875 L 276.546875 224.453125 L 275.175781 224.859375 C 268.359375 226.894531 261.289062 227.914062 254.179688 227.914062 C 244.984375 227.914062 235.898438 226.210938 227.34375 222.832031 C 220.886719 220.285156 214.816406 216.824219 209.335938 212.566406 C 207.085938 210.824219 203.941406 210.957031 201.855469 212.890625 C 198.675781 215.832031 195.078125 218.316406 191.285156 220.398438 C 191.074219 220.515625 190.835938 220.578125 190.59375 220.578125 Z M 190.59375 220.578125 " fill-opacity="1" fill-rule="evenodd"/><path fill="#e6e6e6" d="M 168.761719 195.71875 L 168.359375 193.996094 L 167.128906 195.269531 C 162.4375 200.136719 156.902344 204.148438 150.804688 207.082031 C 143.097656 210.792969 134.691406 212.695312 126.136719 212.695312 C 124.304688 212.695312 122.484375 212.605469 120.683594 212.433594 L 118.152344 213.113281 C 43.628906 201.355469 60.878906 131.609375 61.429688 129.449219 C 58.34375 137.433594 56.726562 145.996094 56.726562 154.765625 C 56.726562 173.460938 64.089844 191.230469 77.3125 204.449219 C 90.535156 217.667969 108.304688 225.027344 127.007812 225.027344 C 135.84375 225.027344 144.582031 223.394531 152.800781 220.152344 C 160.339844 217.179688 167.3125 212.90625 173.398438 207.558594 L 174.042969 206.992188 L 173.554688 206.285156 C 171.34375 203.082031 169.652344 199.515625 168.761719 195.71875 Z M 168.761719 195.71875 " fill-opacity="1" fill-rule="nonzero"/><path fill="#e6e6e6" d="M 61.445312 129.394531 C 61.445312 129.394531 61.4375 129.414062 61.429688 129.449219 C 61.4375 129.433594 61.441406 129.417969 61.449219 129.402344 Z M 61.445312 129.394531 " fill-opacity="1" fill-rule="nonzero"/><path fill="#e6e6e6" d="M 319.738281 129.402344 C 319.746094 129.417969 319.75 129.433594 319.753906 129.449219 C 319.746094 129.414062 319.742188 129.394531 319.742188 129.394531 Z M 319.738281 129.402344 " fill-opacity="1" fill-rule="nonzero"/><path fill="#e6e6e6" d="M 199.195312 166.863281 C 198.472656 163.210938 198.113281 159.496094 198.113281 155.777344 C 198.113281 140.628906 204.078125 126.238281 214.792969 115.53125 C 216.574219 113.742188 218.460938 112.097656 220.4375 110.578125 C 223.710938 104.453125 233.867188 88.941406 254.179688 85.460938 C 254.179688 85.460938 250.894531 84.714844 245.441406 85.035156 C 235.695312 86.242188 226.304688 89.472656 217.824219 94.601562 C 206.832031 101.253906 197.828125 110.824219 191.867188 122.203125 C 191.617188 122.679688 191.132812 122.976562 190.597656 122.976562 L 190.59375 122.972656 L 190.589844 122.976562 C 190.054688 122.976562 189.566406 122.679688 189.316406 122.203125 C 183.359375 110.824219 174.351562 101.253906 163.359375 94.601562 C 154.882812 89.472656 145.492188 86.242188 135.746094 85.035156 C 130.289062 84.714844 127.007812 85.460938 127.007812 85.460938 C 147.320312 88.941406 157.476562 104.453125 160.75 110.578125 C 162.726562 112.097656 164.613281 113.742188 166.394531 115.53125 C 177.105469 126.238281 183.074219 140.628906 183.074219 155.777344 C 183.074219 159.496094 182.710938 163.210938 181.988281 166.863281 C 181.800781 167.808594 181.589844 168.75 181.355469 169.6875 C 180.652344 172.484375 182.09375 175.347656 184.765625 176.449219 C 186.621094 177.214844 188.410156 178.289062 190.015625 179.496094 L 190.59375 179.9375 L 191.171875 179.496094 C 192.777344 178.289062 194.5625 177.214844 196.421875 176.449219 C 199.09375 175.347656 200.53125 172.484375 199.828125 169.6875 C 199.59375 168.75 199.382812 167.808594 199.195312 166.863281 Z M 199.195312 166.863281 " fill-opacity="1" fill-rule="nonzero"/><path fill="#e6e6e6" d="M 319.753906 129.449219 C 320.308594 131.609375 337.558594 201.355469 263.035156 213.113281 L 260.503906 212.433594 C 258.703125 212.605469 256.882812 212.695312 255.050781 212.695312 C 246.496094 212.695312 238.089844 210.792969 230.378906 207.082031 C 224.285156 204.148438 218.75 200.136719 214.058594 195.269531 L 212.828125 193.996094 L 212.421875 195.71875 C 211.53125 199.515625 209.84375 203.082031 207.632812 206.285156 L 207.144531 206.992188 L 207.789062 207.558594 C 213.875 212.90625 220.847656 217.179688 228.386719 220.152344 C 236.605469 223.394531 245.339844 225.027344 254.175781 225.027344 C 272.882812 225.027344 290.652344 217.667969 303.875 204.449219 C 317.097656 191.230469 324.460938 173.460938 324.460938 154.765625 C 324.460938 145.996094 322.839844 137.433594 319.753906 129.449219 Z M 319.753906 129.449219 " fill-opacity="1" fill-rule="nonzero"/><path fill="#e38c31" d="M 208.863281 183.164062 C 208.9375 183.886719 208.964844 184.609375 208.957031 185.328125 L 208.957031 185.390625 C 208.953125 185.445312 208.949219 185.503906 208.953125 185.558594 L 208.953125 185.617188 C 208.929688 186.554688 208.839844 187.484375 208.699219 188.410156 C 207.890625 193.628906 205.328125 198.441406 201.945312 202.445312 C 198.761719 206.214844 194.816406 209.304688 190.59375 211.84375 C 186.375 209.304688 182.425781 206.214844 179.246094 202.445312 C 175.863281 198.441406 173.296875 193.628906 172.488281 188.410156 C 172.347656 187.484375 172.257812 186.554688 172.238281 185.617188 L 172.238281 185.558594 C 172.238281 185.503906 172.238281 185.445312 172.234375 185.390625 L 172.230469 185.359375 L 172.230469 185.328125 C 172.222656 184.609375 172.253906 183.886719 172.324219 183.164062 C 171.320312 185.332031 170.925781 187.824219 170.953125 190.1875 L 170.953125 190.21875 L 170.957031 190.25 C 170.960938 190.308594 170.964844 190.367188 170.960938 190.421875 L 170.960938 190.484375 C 170.984375 191.417969 171.070312 192.351562 171.214844 193.273438 C 172.019531 198.496094 174.582031 203.304688 177.96875 207.3125 C 181.230469 211.175781 185.289062 214.332031 189.628906 216.90625 L 189.628906 218.050781 L 190.59375 217.492188 L 191.558594 218.050781 L 191.558594 216.90625 C 195.898438 214.332031 199.957031 211.175781 203.222656 207.3125 C 206.605469 203.304688 209.167969 198.496094 209.976562 193.273438 C 210.117188 192.351562 210.207031 191.417969 210.226562 190.484375 L 210.226562 190.421875 C 210.226562 190.367188 210.226562 190.308594 210.230469 190.25 L 210.234375 190.21875 L 210.234375 190.1875 C 210.261719 187.824219 209.871094 185.332031 208.863281 183.164062 Z M 208.863281 183.164062 " fill-opacity="1" fill-rule="evenodd"/><path fill="#000030" d="M 130.957031 125.652344 C 114.3125 125.652344 100.820312 139.140625 100.820312 155.78125 C 100.820312 172.417969 114.3125 185.90625 130.957031 185.90625 C 147.597656 185.90625 161.089844 172.417969 161.089844 155.78125 C 161.089844 139.140625 147.597656 125.652344 130.957031 125.652344 Z M 130.957031 125.652344 " fill-opacity="1" fill-rule="nonzero"/><path fill="#000030" d="M 310.589844 294.734375 C 306.660156 301.664062 301.226562 307.121094 294.882812 310.953125 C 288.527344 314.796875 281.257812 317.019531 273.675781 317.484375 C 255.257812 318.613281 234.96875 309.410156 221.25 287.964844 C 226.183594 285.929688 237.34375 281.109375 249.324219 274.515625 C 249.410156 274.472656 249.496094 274.429688 249.578125 274.375 C 261.242188 267.9375 273.648438 259.828125 281.824219 250.972656 C 282.722656 249.996094 282.660156 248.472656 281.679688 247.574219 C 280.703125 246.671875 279.179688 246.738281 278.28125 247.714844 C 275.449219 250.785156 272.074219 253.761719 268.386719 256.609375 C 269.597656 254.941406 270.695312 253.265625 271.691406 251.597656 C 277.910156 241.148438 280.035156 230.941406 280.386719 224.117188 C 287.742188 221.335938 294.539062 217.421875 300.566406 212.585938 L 300.570312 212.585938 C 320.894531 248.558594 320.820312 276.675781 310.589844 294.734375 Z M 256.429688 324.414062 C 249.710938 330.402344 242.414062 335.832031 234.746094 340.527344 C 199.875 361.871094 181.3125 361.875 146.4375 340.527344 C 138.773438 335.832031 131.476562 330.402344 124.757812 324.414062 C 124.082031 323.808594 123.808594 322.945312 124.011719 322.0625 C 124.21875 321.179688 124.839844 320.527344 125.714844 320.28125 C 140.640625 316.109375 155.132812 305.628906 165.550781 288.023438 C 166.226562 286.882812 165.851562 285.40625 164.703125 284.730469 C 164.574219 284.652344 164.4375 284.589844 164.300781 284.539062 C 163.359375 284.171875 149.449219 278.707031 134.269531 270.363281 L 134.222656 270.335938 C 124.535156 263.9375 117.980469 256.464844 113.621094 249.144531 C 108.421875 240.421875 106.324219 231.929688 105.738281 225.78125 C 112.476562 227.796875 119.613281 228.878906 127.007812 228.878906 C 136.597656 228.878906 145.769531 227.050781 154.195312 223.730469 C 160.792969 221.128906 166.925781 217.609375 172.441406 213.328125 C 174.320312 211.867188 176.929688 211.980469 178.675781 213.597656 C 181.601562 216.300781 185.15625 218.886719 189.433594 221.242188 C 189.445312 221.246094 189.457031 221.25 189.46875 221.257812 C 189.539062 221.292969 189.617188 221.320312 189.691406 221.351562 C 189.765625 221.382812 189.835938 221.417969 189.910156 221.4375 C 189.96875 221.457031 190.03125 221.460938 190.089844 221.472656 C 190.183594 221.496094 190.273438 221.519531 190.363281 221.527344 C 190.4375 221.535156 190.507812 221.527344 190.582031 221.527344 C 190.660156 221.527344 190.742188 221.535156 190.820312 221.527344 C 190.910156 221.519531 190.996094 221.496094 191.085938 221.476562 C 191.148438 221.464844 191.214844 221.457031 191.277344 221.4375 C 191.351562 221.417969 191.417969 221.382812 191.492188 221.351562 C 191.570312 221.320312 191.644531 221.292969 191.71875 221.257812 C 191.730469 221.25 191.742188 221.246094 191.75 221.242188 C 196.03125 218.886719 199.585938 216.300781 202.507812 213.597656 C 204.257812 211.980469 206.867188 211.867188 208.746094 213.328125 C 214.257812 217.609375 220.390625 221.128906 226.992188 223.730469 C 235.414062 227.050781 244.589844 228.878906 254.179688 228.878906 C 261.574219 228.878906 268.710938 227.796875 275.449219 225.78125 C 274.859375 231.929688 272.765625 240.421875 267.566406 249.144531 C 263.207031 256.464844 256.652344 263.9375 246.960938 270.335938 L 246.917969 270.363281 C 231.734375 278.707031 217.824219 284.171875 216.882812 284.539062 C 216.75 284.589844 216.613281 284.652344 216.480469 284.730469 C 215.335938 285.40625 214.960938 286.882812 215.632812 288.023438 C 226.054688 305.628906 240.546875 316.109375 255.472656 320.28125 C 256.34375 320.527344 256.96875 321.179688 257.175781 322.0625 C 257.378906 322.945312 257.105469 323.808594 256.429688 324.414062 Z M 250.113281 352.679688 C 247.964844 355.777344 245.089844 358.410156 241.8125 360.371094 C 238.539062 362.324219 234.871094 363.597656 231.125 363.976562 C 224.664062 364.632812 217.917969 362.597656 212.507812 356.761719 C 221.671875 353.320312 229.929688 349.117188 237.253906 344.632812 C 243.148438 341.023438 248.4375 337.230469 253.101562 333.503906 L 253.101562 333.507812 C 255.382812 340.554688 253.832031 347.324219 250.113281 352.679688 Z M 150.0625 363.976562 C 146.316406 363.597656 142.644531 362.324219 139.375 360.371094 C 136.09375 358.410156 133.222656 355.777344 131.070312 352.679688 C 127.355469 347.324219 125.804688 340.554688 128.082031 333.507812 L 128.085938 333.503906 C 132.75 337.230469 138.039062 341.023438 143.933594 344.632812 C 151.257812 349.117188 159.515625 353.320312 168.679688 356.761719 C 163.269531 362.597656 156.523438 364.632812 150.0625 363.976562 Z M 107.511719 317.484375 C 99.929688 317.019531 92.660156 314.796875 86.304688 310.953125 C 79.960938 307.121094 74.523438 301.664062 70.597656 294.734375 C 60.363281 276.675781 60.292969 248.558594 80.617188 212.585938 L 80.621094 212.585938 C 86.644531 217.421875 93.445312 221.335938 100.800781 224.117188 C 101.148438 230.941406 103.273438 241.148438 109.496094 251.597656 C 110.488281 253.265625 111.589844 254.941406 112.800781 256.609375 C 109.113281 253.761719 105.738281 250.785156 102.90625 247.714844 C 102.007812 246.738281 100.484375 246.671875 99.507812 247.574219 C 98.527344 248.472656 98.464844 249.996094 99.363281 250.972656 C 107.539062 259.828125 119.945312 267.9375 131.605469 274.375 C 131.691406 274.429688 131.773438 274.472656 131.859375 274.515625 C 143.84375 281.109375 155 285.929688 159.933594 287.964844 C 146.21875 309.410156 125.929688 318.613281 107.511719 317.484375 Z M 201.972656 155.78125 C 201.972656 141.125 207.917969 127.859375 217.519531 118.257812 C 227.125 108.65625 240.394531 102.71875 255.054688 102.71875 C 269.710938 102.71875 282.980469 108.65625 292.585938 118.257812 C 302.195312 127.859375 308.132812 141.125 308.132812 155.78125 C 308.132812 170.433594 302.191406 183.699219 292.585938 193.300781 C 282.980469 202.90625 269.710938 208.84375 255.054688 208.84375 C 246.804688 208.84375 239.003906 206.96875 232.054688 203.621094 C 225.074219 200.261719 218.941406 195.421875 214.070312 189.507812 C 214.003906 186.058594 213.191406 182.984375 211.863281 180.574219 C 211.070312 179.136719 210.09375 177.921875 208.976562 176.976562 C 207.855469 176.035156 206.699219 175.378906 205.535156 174.957031 C 204.445312 172.136719 203.585938 169.1875 202.980469 166.128906 C 202.320312 162.789062 201.972656 159.328125 201.972656 155.78125 Z M 169.324219 180.574219 C 167.992188 182.984375 167.183594 186.058594 167.117188 189.507812 C 162.242188 195.421875 156.109375 200.261719 149.132812 203.621094 C 142.183594 206.96875 134.382812 208.84375 126.132812 208.84375 C 111.476562 208.84375 98.203125 202.90625 88.601562 193.300781 C 78.996094 183.699219 73.050781 170.433594 73.050781 155.78125 C 73.050781 141.125 78.992188 127.859375 88.601562 118.257812 C 98.203125 108.65625 111.476562 102.71875 126.132812 102.71875 C 140.789062 102.71875 154.0625 108.65625 163.664062 118.257812 C 173.269531 127.859375 179.210938 141.125 179.210938 155.78125 C 179.210938 159.328125 178.867188 162.789062 178.207031 166.128906 C 177.601562 169.1875 176.742188 172.136719 175.648438 174.957031 C 174.484375 175.378906 173.328125 176.035156 172.210938 176.976562 C 171.089844 177.921875 170.117188 179.136719 169.324219 180.574219 Z M 190.59375 216.355469 C 185.480469 213.386719 181.574219 210.082031 178.703125 206.683594 C 174.832031 202.101562 172.824219 197.371094 172.164062 193.125 C 172.019531 192.210938 171.941406 191.316406 171.921875 190.457031 C 171.921875 190.359375 171.921875 190.265625 171.914062 190.171875 C 171.882812 187.300781 172.492188 184.785156 173.542969 182.878906 C 174.046875 181.964844 174.648438 181.207031 175.316406 180.640625 C 180.847656 175.972656 188.925781 183.574219 188.949219 183.59375 C 189.074219 183.710938 189.226562 183.765625 189.367188 183.851562 C 189.472656 183.917969 189.570312 183.996094 189.683594 184.042969 C 189.84375 184.109375 190.007812 184.128906 190.175781 184.160156 C 190.316406 184.183594 190.449219 184.222656 190.59375 184.222656 C 190.738281 184.222656 190.871094 184.183594 191.011719 184.160156 C 191.179688 184.128906 191.34375 184.109375 191.503906 184.042969 C 191.617188 183.996094 191.714844 183.917969 191.820312 183.851562 C 191.960938 183.765625 192.113281 183.710938 192.238281 183.59375 C 192.257812 183.574219 200.339844 175.972656 205.867188 180.640625 C 206.539062 181.207031 207.140625 181.964844 207.644531 182.878906 C 208.691406 184.785156 209.304688 187.300781 209.273438 190.171875 C 209.261719 190.265625 209.261719 190.359375 209.265625 190.457031 C 209.242188 191.316406 209.164062 192.207031 209.023438 193.125 C 208.363281 197.371094 206.355469 202.101562 202.484375 206.683594 C 199.613281 210.082031 195.707031 213.386719 190.59375 216.355469 Z M 57.6875 154.765625 C 57.6875 135.628906 65.449219 118.304688 77.992188 105.765625 C 90.539062 93.222656 107.867188 85.46875 127.007812 85.46875 C 140.144531 85.46875 152.417969 89.109375 162.863281 95.433594 C 173.6875 101.980469 182.574219 111.410156 188.464844 122.652344 C 188.46875 122.65625 188.472656 122.660156 188.476562 122.667969 C 189.363281 124.355469 191.820312 124.34375 192.710938 122.667969 C 192.714844 122.660156 192.71875 122.65625 192.722656 122.652344 C 198.609375 111.410156 207.5 101.980469 218.320312 95.433594 C 228.769531 89.109375 241.042969 85.46875 254.175781 85.46875 C 273.316406 85.46875 290.648438 93.222656 303.195312 105.765625 C 315.738281 118.304688 323.496094 135.628906 323.496094 154.765625 C 323.496094 173.902344 315.738281 191.226562 303.195312 203.769531 C 290.652344 216.308594 273.316406 224.066406 254.175781 224.066406 C 245.191406 224.066406 236.609375 222.359375 228.738281 219.257812 C 221.242188 216.300781 214.378906 212.074219 208.421875 206.835938 C 210.949219 203.179688 212.535156 199.46875 213.359375 195.945312 C 218.109375 200.867188 223.726562 204.953125 229.960938 207.957031 C 237.5625 211.613281 246.074219 213.664062 255.050781 213.664062 C 271.042969 213.664062 285.515625 207.183594 295.992188 196.710938 C 306.472656 186.234375 312.953125 171.761719 312.953125 155.78125 C 312.953125 139.792969 306.472656 125.324219 295.992188 114.851562 C 285.515625 104.375 271.039062 97.894531 255.050781 97.894531 C 239.0625 97.894531 224.585938 104.375 214.109375 114.851562 C 203.628906 125.324219 197.148438 139.796875 197.148438 155.78125 C 197.148438 159.628906 197.527344 163.398438 198.25 167.050781 C 198.441406 168.015625 198.660156 168.972656 198.894531 169.921875 L 198.90625 169.914062 C 199.496094 172.253906 198.296875 174.628906 196.066406 175.550781 C 193.777344 176.496094 191.863281 177.773438 190.59375 178.734375 C 189.320312 177.773438 187.40625 176.496094 185.121094 175.550781 C 182.890625 174.628906 181.691406 172.253906 182.28125 169.914062 L 182.289062 169.921875 C 182.527344 168.972656 182.742188 168.015625 182.9375 167.050781 C 183.660156 163.398438 184.039062 159.628906 184.039062 155.78125 C 184.039062 139.796875 177.558594 125.324219 167.078125 114.851562 C 156.601562 104.375 142.125 97.894531 126.136719 97.894531 C 110.148438 97.894531 95.671875 104.375 85.191406 114.851562 C 74.714844 125.324219 68.234375 139.792969 68.234375 155.78125 C 68.234375 171.761719 74.714844 186.234375 85.191406 196.710938 C 95.671875 207.183594 110.144531 213.664062 126.136719 213.664062 C 135.113281 213.664062 143.625 211.613281 151.222656 207.957031 C 157.457031 204.953125 163.074219 200.867188 167.824219 195.945312 C 168.652344 199.46875 170.234375 203.179688 172.761719 206.835938 C 166.808594 212.074219 159.945312 216.300781 152.445312 219.257812 C 144.578125 222.359375 135.996094 224.066406 127.011719 224.066406 C 107.867188 224.066406 90.535156 216.308594 77.992188 203.769531 C 65.445312 191.226562 57.6875 173.902344 57.6875 154.765625 Z M 65.191406 107.203125 C 70.28125 92.855469 77.246094 81.921875 83.414062 74.195312 C 87.484375 78.550781 92.882812 82.558594 100.046875 85.695312 C 90.417969 89.457031 81.765625 95.167969 74.582031 102.351562 C 69.320312 107.609375 64.847656 113.652344 61.355469 120.289062 C 62.441406 115.652344 63.738281 111.289062 65.191406 107.203125 Z M 76.027344 42.367188 C 79.496094 44.246094 83.367188 45.652344 87.246094 46.703125 C 92.222656 48.050781 97.257812 48.820312 101.464844 49.261719 C 104.957031 51.097656 108.820312 52.808594 113.089844 54.351562 C 114.335938 54.796875 115.710938 54.148438 116.160156 52.898438 C 116.609375 51.652344 115.957031 50.277344 114.710938 49.832031 C 110.542969 48.324219 106.796875 46.65625 103.425781 44.871094 C 103.332031 44.816406 103.234375 44.761719 103.132812 44.71875 C 81.585938 33.207031 75.558594 17.109375 74.03125 11.265625 C 119.40625 3.125 149.261719 40.277344 149.347656 40.382812 L 149.351562 40.382812 C 149.9375 41.09375 150.90625 41.433594 151.855469 41.175781 C 163.628906 37.921875 190.453125 38.707031 190.535156 38.707031 C 190.554688 38.710938 190.574219 38.707031 190.59375 38.707031 C 190.613281 38.707031 190.632812 38.710938 190.652344 38.707031 C 190.730469 38.707031 217.554688 37.921875 229.332031 41.175781 C 230.277344 41.433594 231.246094 41.09375 231.832031 40.382812 L 231.835938 40.382812 C 231.925781 40.277344 261.777344 3.125 307.15625 11.265625 C 305.625 17.109375 299.597656 33.207031 278.054688 44.71875 C 277.953125 44.761719 277.855469 44.816406 277.761719 44.871094 C 274.386719 46.65625 270.644531 48.324219 266.476562 49.832031 C 265.226562 50.277344 264.578125 51.652344 265.023438 52.898438 C 265.476562 54.148438 266.847656 54.796875 268.097656 54.351562 C 272.367188 52.808594 276.226562 51.097656 279.722656 49.261719 C 283.929688 48.820312 288.964844 48.050781 293.941406 46.703125 C 297.820312 45.652344 301.691406 44.246094 305.160156 42.367188 C 305.128906 51.433594 302.085938 73.964844 273.949219 83.3125 C 267.65625 81.574219 261.027344 80.648438 254.175781 80.648438 C 240.160156 80.648438 227.035156 84.546875 215.835938 91.328125 C 205.492188 97.585938 196.820312 106.320312 190.59375 116.6875 C 184.367188 106.320312 175.695312 97.585938 165.351562 91.328125 C 154.148438 84.546875 141.027344 80.648438 127.007812 80.648438 C 120.160156 80.648438 113.53125 81.574219 107.234375 83.3125 C 79.101562 73.964844 76.058594 51.433594 76.027344 42.367188 Z M 315.996094 107.203125 C 317.445312 111.289062 318.746094 115.652344 319.828125 120.289062 C 316.339844 113.652344 311.863281 107.609375 306.601562 102.351562 C 299.421875 95.167969 290.769531 89.457031 281.140625 85.695312 C 288.304688 82.558594 293.703125 78.550781 297.769531 74.195312 C 303.9375 81.921875 310.90625 92.855469 315.996094 107.203125 Z M 306.601562 207.175781 C 320.019531 193.761719 328.316406 175.230469 328.316406 154.765625 L 328.316406 154.667969 C 328.3125 152.65625 328.230469 150.671875 328.070312 148.703125 C 327.796875 131.960938 324.800781 117.628906 320.53125 105.605469 C 315.054688 90.1875 307.492188 78.53125 300.90625 70.429688 C 311.609375 56.023438 309.933594 39.574219 309.742188 38.007812 C 309.714844 37.585938 309.566406 37.164062 309.304688 36.792969 C 308.535156 35.710938 307.03125 35.457031 305.953125 36.226562 C 302.21875 38.898438 297.492188 40.757812 292.695312 42.054688 C 291.851562 42.285156 291.007812 42.496094 290.167969 42.6875 C 309.472656 28.191406 312.253906 10.695312 312.390625 9.753906 C 312.59375 8.5 311.773438 7.285156 310.511719 7.019531 C 304.929688 5.835938 299.566406 5.304688 294.4375 5.285156 C 258.527344 5.167969 234.195312 30.402344 229.101562 36.167969 C 216.4375 33.25 192.035156 33.867188 190.59375 33.910156 C 189.152344 33.867188 164.75 33.25 152.082031 36.167969 C 146.988281 30.402344 122.65625 5.167969 86.75 5.285156 C 81.621094 5.304688 76.253906 5.835938 70.675781 7.019531 C 69.414062 7.285156 68.59375 8.5 68.796875 9.753906 C 68.933594 10.695312 71.714844 28.191406 91.019531 42.6875 C 90.175781 42.496094 89.335938 42.285156 88.488281 42.054688 C 83.695312 40.757812 78.96875 38.898438 75.234375 36.226562 C 74.15625 35.457031 72.652344 35.710938 71.882812 36.792969 C 71.617188 37.164062 71.472656 37.585938 71.445312 38.007812 C 71.253906 39.574219 69.574219 56.023438 80.277344 70.429688 C 73.691406 78.53125 66.128906 90.1875 60.65625 105.605469 C 56.386719 117.628906 53.390625 131.960938 53.117188 148.703125 C 52.957031 150.671875 52.871094 152.65625 52.871094 154.667969 L 52.871094 154.765625 C 52.871094 175.230469 61.167969 193.761719 74.585938 207.175781 C 75.34375 207.933594 76.121094 208.675781 76.910156 209.398438 C 55.148438 247.472656 55.363281 277.589844 66.421875 297.109375 C 70.773438 304.789062 76.796875 310.832031 83.824219 315.078125 C 90.84375 319.320312 98.867188 321.769531 107.234375 322.285156 C 109.917969 322.449219 112.632812 322.414062 115.363281 322.175781 C 117.917969 324.710938 120.851562 327.441406 124.148438 330.253906 C 120.460938 339.484375 122.277344 348.433594 127.125 355.410156 C 129.667969 359.078125 133.058594 362.1875 136.914062 364.492188 C 140.777344 366.800781 145.132812 368.304688 149.597656 368.757812 C 158.03125 369.613281 166.839844 366.742188 173.550781 358.484375 C 190.480469 361.363281 191.09375 361.609375 207.636719 358.484375 C 214.347656 366.742188 223.152344 369.613281 231.589844 368.757812 C 236.054688 368.304688 240.410156 366.800781 244.269531 364.492188 C 248.128906 362.1875 251.515625 359.078125 254.0625 355.410156 C 258.90625 348.433594 260.722656 339.484375 257.035156 330.253906 C 260.335938 327.441406 263.265625 324.710938 265.824219 322.175781 C 268.550781 322.414062 271.269531 322.449219 273.949219 322.285156 C 282.320312 321.769531 290.34375 319.320312 297.359375 315.078125 C 304.390625 310.832031 310.414062 304.789062 314.765625 297.109375 C 325.820312 277.589844 326.039062 247.472656 304.277344 209.398438 C 305.066406 208.675781 305.84375 207.933594 306.601562 207.175781 Z M 306.601562 207.175781 " fill-opacity="1" fill-rule="nonzero"/><path fill="#000030" d="M 250.230469 185.90625 C 266.875 185.90625 280.367188 172.417969 280.367188 155.78125 C 280.367188 139.140625 266.875 125.652344 250.230469 125.652344 C 233.585938 125.652344 220.097656 139.140625 220.097656 155.78125 C 220.097656 172.417969 233.585938 185.90625 250.230469 185.90625 Z M 250.230469 185.90625 " fill-opacity="1" fill-rule="nonzero"/><path fill="#fcaf5c" d="M 177.1875 182.128906 C 174.703125 183.800781 175.21875 189.046875 176.871094 191.515625 C 178.53125 193.980469 180.710938 192.726562 183.195312 191.058594 C 185.679688 189.386719 187.53125 187.929688 185.871094 185.464844 C 184.210938 183 179.675781 180.460938 177.1875 182.128906 Z M 177.1875 182.128906 " fill-opacity="1" fill-rule="evenodd"/><path fill="#fcaf5c" d="M 203.996094 182.128906 C 201.511719 180.460938 196.972656 183 195.316406 185.464844 C 193.65625 187.929688 195.503906 189.386719 197.988281 191.058594 C 200.476562 192.726562 202.652344 193.980469 204.3125 191.515625 C 205.96875 189.046875 206.480469 183.800781 203.996094 182.128906 Z M 203.996094 182.128906 " fill-opacity="1" fill-rule="evenodd"/><path fill="#ffffff" d="M 112.105469 124.933594 C 117.742188 124.933594 122.3125 129.5 122.3125 135.132812 C 122.3125 140.769531 117.742188 145.335938 112.105469 145.335938 C 106.46875 145.335938 101.898438 140.769531 101.898438 135.132812 C 101.898438 129.5 106.46875 124.933594 112.105469 124.933594 Z M 112.105469 124.933594 " fill-opacity="1" fill-rule="evenodd"/><path fill="#ffffff" d="M 269.085938 124.933594 C 274.722656 124.933594 279.289062 129.5 279.289062 135.132812 C 279.289062 140.769531 274.722656 145.335938 269.085938 145.335938 C 263.445312 145.335938 258.878906 140.769531 258.878906 135.132812 C 258.878906 129.5 263.445312 124.933594 269.085938 124.933594 Z M 269.085938 124.933594 " fill-opacity="1" fill-rule="evenodd"/><g fill="#ffffff" fill-opacity="1"><g transform="translate(183.496867, 265.103654)"><g><path d="M 2.125 -6.90625 C 1.789062 -6.90625 1.5 -7.019531 1.25 -7.25 C 1.007812 -7.488281 0.890625 -7.875 0.890625 -8.40625 C 0.890625 -9.019531 1.09375 -9.613281 1.5 -10.1875 C 1.914062 -10.757812 2.585938 -11.175781 3.515625 -11.4375 L 3.515625 -11.28125 C 3.023438 -11.125 2.625 -10.914062 2.3125 -10.65625 C 2 -10.394531 1.84375 -10.0625 1.84375 -9.65625 C 1.84375 -9.375 1.90625 -9.171875 2.03125 -9.046875 C 2.164062 -8.921875 2.320312 -8.820312 2.5 -8.75 C 2.675781 -8.6875 2.832031 -8.59375 2.96875 -8.46875 C 3.101562 -8.34375 3.171875 -8.148438 3.171875 -7.890625 C 3.171875 -7.566406 3.070312 -7.320312 2.875 -7.15625 C 2.675781 -6.988281 2.425781 -6.90625 2.125 -6.90625 Z M 2.125 -6.90625 "/></g></g></g></svg>